<svg xmlns="http://www.w3.org/2000/svg" viewBox="0 0 100 100">
  <!-- Black background -->
  <rect width="100" height="100" rx="20" fill="#000000"/>
  
  <!-- Apple logo simplified -->
  <g transform="translate(50, 30)">
    <!-- Leaf -->
    <path d="M 0 -8 Q -3 -12, -6 -12 Q -3 -12, 0 -8" fill="#ffffff"/>
    <!-- Apple body -->
    <ellipse cx="0" cy="3" rx="13" ry="15" fill="#ffffff"/>
    <path d="M -8 -2 Q -13 3, -13 10 Q -13 18, -5 18 Q 0 18, 3 15 Q 6 18, 11 18 Q 13 18, 13 10 Q 13 3, 8 -2" fill="#ffffff"/>
    <!-- Bite -->
    <ellipse cx="11" cy="2" rx="4" ry="5" fill="#000000"/>
  </g>
  
  <!-- Credit card -->
  <rect x="20" y="52" width="60" height="38" rx="4" fill="#ffffff"/>
  
  <!-- Card magnetic stripe -->
  <rect x="20" y="60" width="60" height="6" fill="#1c1c1e"/>
  
  <!-- Korean flag colors (subtle) -->
  <circle cx="32" cy="77" r="3" fill="#0047A0"/>
  <circle cx="42" cy="77" r="3" fill="#CD2E3A"/>
  
  <!-- Card chip (subtle) -->
  <rect x="55" y="72" width="8" height="6" rx="1" fill="#FFD700" opacity="0.7"/>
  
  <!-- Contactless payment waves -->
  <g transform="translate(68, 72)">
    <path d="M 0 0 Q 2 -1.5, 2 -3.5" stroke="#1c1c1e" stroke-width="1.2" fill="none" stroke-linecap="round"/>
    <path d="M 3 0.5 Q 6 -1.5, 6 -5" stroke="#1c1c1e" stroke-width="1.2" fill="none" stroke-linecap="round"/>
    <path d="M 6 1 Q 10 -1.5, 10 -6.5" stroke="#1c1c1e" stroke-width="1.2" fill="none" stroke-linecap="round"/>
  </g>
</svg>
